<?xml version="1.0" encoding="utf-8"?>
<!-- Generator: Adobe Illustrator 21.1.0, SVG Export Plug-In . SVG Version: 6.00 Build 0)  -->
<svg version="1.1" id="Capa_1" xmlns="http://www.w3.org/2000/svg" xmlns:xlink="http://www.w3.org/1999/xlink" x="0px" y="0px"
	 viewBox="0 0 500 500" style="enable-background:new 0 0 500 500;" xml:space="preserve">
<style type="text/css">
	.st0{fill:#FFFFFF;}
</style>
<g>
	<g>
		<path id="XMLID_2_" class="st0" d="M364.8,149.2h-20.7H219c-0.6,3.2-1,6.6-1,10.1c0,3.6,0.3,7.1,1,10.5h125.2
			c-5.1,47.7-45.7,85-94.7,85c-26.3,0-50.1-10.7-67.3-27.9c-15-15-25-34.9-27.4-57c-0.4-3.4-0.6-6.8-0.6-10.3s0.2-6.9,0.6-10.3
			c5.1-47.7,45.7-85,94.7-85c26.3,0,50.1,10.7,67.3,27.9l14.5-14.5c-21-21-49.9-34-81.9-34c-60.4,0-110.1,46.5-115.4,105.5
			c-0.3,3.4-0.5,6.8-0.5,10.3s0.2,6.9,0.5,10.3c2.5,27.8,14.8,52.9,33.5,71.6c21,21,49.9,34,81.9,34c60.4,0,110.1-46.5,115.4-105.5
			c0.3-3.4,0.5-6.8,0.5-10.3S365.1,152.6,364.8,149.2z"/>
		<path id="XMLID_1_" class="st0" d="M284.5,194.4c-4.5,3.6-8.7,6.4-12.7,8.2c-6.3,2.8-13.3,4.3-20.9,4.3c-8.9,0-17.1-2.1-24.4-6.1
			c-7.3-4.1-13-9.7-17-16.9c-4-7.1-6-15.4-6-24.5c0-13.2,4.6-24.4,13.6-33.4c9-9,20.2-13.6,33.4-13.6c12.2,0,23.6,4.1,34,12.3
			l15.4-15.4c-5.4-4.6-11.3-8.5-17.8-11.5c-9.9-4.5-20.4-6.8-31.2-6.8c-12.6,0-24.6,3.1-35.5,9.2c-10.9,6.1-19.4,14.3-25.3,24.4
			c-5.9,10.1-8.8,21.7-8.8,34.7c0,20,6.5,36.7,19.4,49.5c12.9,12.8,29.6,19.3,49.9,19.3c11,0,20.9-1.8,29.4-5.5
			c6.3-2.7,13-7,19.9-12.8L284.5,194.4z"/>
	</g>
	<g>
		<path class="st0" d="M162.7,302.2v15.9h-1.2c-1.5-4.4-3.8-7.8-6.8-10c-3-2.2-6.2-3.3-9.7-3.3c-3.4,0-6.3,0.9-8.5,2.8
			c-2.2,1.8-3.7,4.5-4.7,7.9c-0.9,3.4-1.4,6.9-1.4,10.5c-0.1,3.3,0.2,6.3,0.9,8.9c0.6,2.6,1.5,4.9,2.8,6.7c1.2,1.8,2.8,3.2,4.6,4.1
			c1.8,0.9,4,1.3,6.4,1.2c1.1,0,2.2-0.1,3.3-0.4c1.1-0.3,2.3-0.6,3.5-1.1v-9.3c0-1.9-0.1-3-0.3-3.4c-0.2-0.6-0.7-1.1-1.5-1.5
			c-0.8-0.4-1.7-0.6-2.9-0.6h-1.1v-1.2H168v1.2c-1.6,0.1-2.8,0.3-3.5,0.7c-0.7,0.3-1.2,0.9-1.6,1.7c-0.2,0.5-0.3,1.6-0.3,3.2v9.3
			c-5.7,2.7-12,4-18.7,4c-3.2,0-6-0.3-8.4-1c-2.4-0.7-4.5-1.6-6.4-2.8c-1.8-1.2-3.5-2.5-4.8-4c-1.4-1.5-2.6-3.2-3.7-4.9
			c-1.5-3-2.3-6.5-2.3-10.3c0-6.8,2.4-12.5,7.1-17.2c4.8-4.7,10.8-7,18.1-7c2.1,0,4.1,0.2,6.1,0.5c0.5,0.1,1.1,0.3,1.9,0.5
			c0.8,0.2,1.7,0.6,2.8,1c2.2,0.9,3.5,1.3,3.9,1.3c0.6,0,1.2-0.2,1.7-0.7c0.5-0.5,1-1.3,1.5-2.6H162.7z"/>
		<path class="st0" d="M186.8,326.8v12.7c0,2.4,0.1,4,0.4,4.7c0.3,0.6,0.8,1.1,1.6,1.5c0.8,0.4,2.2,0.6,4.2,0.6v1.2h-23.1v-1.2
			c2,0,3.4-0.2,4.2-0.6c0.9-0.5,1.4-0.9,1.6-1.5c0.3-0.7,0.4-2.2,0.4-4.7v-29.3c0-2.3-0.1-3.8-0.4-4.5c-0.3-0.7-0.8-1.2-1.6-1.6
			c-0.8-0.4-2.2-0.6-4.2-0.6v-1.3h21c5.4,0,9.4,0.4,11.9,1.2c2.6,0.7,4.6,2.1,6.2,4.1c1.6,2,2.4,4.4,2.4,7.2c0,3.3-1.2,6.1-3.6,8.3
			c-1.5,1.4-3.6,2.4-6.4,3.1l10.8,15.3c1.4,2,2.4,3.2,3.1,3.7c1,0.7,2,1.1,3.2,1.2v1.2h-14.2l-14.6-20.6H186.8z M186.8,304.7v19.8
			h1.8c3.1,0,5.5-0.3,7-0.8c1.5-0.6,2.7-1.7,3.6-3.1c0.9-1.4,1.3-3.4,1.3-5.8c0-3.4-0.8-5.9-2.4-7.6c-1.6-1.6-4.2-2.5-7.8-2.5H186.8
			z"/>
		<path class="st0" d="M219.2,302.3h23.4v1.3h-1.2c-1.6,0-2.8,0.2-3.6,0.5c-0.6,0.4-1.1,0.9-1.4,1.5c-0.3,0.7-0.4,2.3-0.4,4.9v22.1
			c0,4.2,0.3,6.8,0.9,8c0.6,1.3,1.6,2.4,3.1,3.3c1.4,0.9,3.2,1.3,5.3,1.3c2.4,0,4.5-0.5,6.2-1.6c1.7-1.2,3-2.7,3.8-4.6
			c0.9-1.9,1.4-5.2,1.4-10.1v-18.4c0-2-0.2-3.5-0.6-4.3c-0.4-0.9-1-1.4-1.7-1.8c-1-0.5-2.4-0.8-4.2-0.8v-1.3h15.6v1.3h-0.9
			c-2.6,0-4.3,1-5,3.1c-0.2,0.7-0.3,2-0.3,3.8v17.1c0,5.4-0.4,9.3-1.1,11.6c-0.7,2.4-2.4,4.5-5.1,6.5c-2.6,2-6.3,3-11.1,3
			c-3.9,0-6.9-0.5-9-1.6c-2.9-1.4-5-3.2-6.2-5.5c-1.2-2.2-1.8-5.2-1.8-9v-22.1c0-2.6-0.1-4.2-0.4-4.9c-0.2-0.6-0.7-1.1-1.5-1.5
			c-0.7-0.4-2.1-0.6-4-0.5V302.3z"/>
		<path class="st0" d="M285.6,339.3c0,2.4,0.1,4,0.4,4.7c0.3,0.6,0.8,1.1,1.6,1.4c0.8,0.4,2.2,0.6,4.3,0.6v1.2h-23v-1.2
			c2,0,3.5-0.2,4.3-0.6c0.8-0.4,1.3-0.9,1.5-1.4c0.3-0.6,0.5-2.2,0.5-4.7V310c0-2.4-0.2-3.9-0.5-4.5c-0.3-0.7-0.8-1.2-1.5-1.6
			c-0.7-0.4-2.2-0.6-4.3-0.6v-1.3h19.7c6.5,0,11.1,1.2,14,3.5c2.8,2.3,4.3,5.2,4.3,8.7c0,2.9-0.9,5.4-2.7,7.5
			c-1.8,2.1-4.3,3.5-7.6,4.2c-2.2,0.6-5.8,0.9-10.9,0.9V339.3z M285.6,304.7v19.5c0.4,0,0.7,0,1,0c0.3,0,0.5,0,0.6,0
			c2.7,0,4.8-0.8,6.3-2.4c1.5-1.6,2.2-4.1,2.2-7.5c0-3.4-0.7-5.9-2.2-7.4c-1.4-1.5-3.6-2.3-6.5-2.3H285.6z"/>
		<path class="st0" d="M335.3,301c7.1-0.3,12.9,1.8,17.5,6.3c4.5,4.4,6.8,10,6.8,16.8c0,5.7-1.7,10.7-5.1,15
			c-4.3,5.8-10.6,8.7-18.8,8.7c-8.1,0-14.4-2.8-18.8-8.3c-3.5-4.4-5.3-9.5-5.3-15.4c0-6.7,2.3-12.3,6.8-16.7
			C323,302.9,328.6,300.8,335.3,301z M335.7,303.2c-4.2,0-7.4,2.1-9.5,6.3c-1.8,3.4-2.6,8.4-2.6,14.9c0,7.7,1.4,13.4,4.1,17.1
			c1.9,2.6,4.5,3.8,7.9,3.8c2.3,0,4.2-0.6,5.7-1.7c1.9-1.4,3.5-3.7,4.6-6.7c1.1-3.1,1.7-7.2,1.7-12.3c0-5.9-0.6-10.4-1.7-13.4
			c-1.1-3-2.5-5.1-4.2-6.3C339.9,303.8,337.9,303.2,335.7,303.2z"/>
		<path class="st0" d="M42.8,359.9v15.7h-1.4c-0.9-4.1-2.7-7.3-5.3-9.4c-2.6-2.1-5.7-3.2-9.1-3.2c-2.9,0-5.5,0.8-7.8,2.4
			c-2.3,1.6-4,3.7-5.1,6.4c-1.4,3.2-2.1,7-2.1,11.2c0,4,0.5,7.7,1.5,11.1c2,6.7,6.5,10,13.3,10c1.4,0,2.8-0.1,4.1-0.4
			c1.3-0.3,2.5-0.8,3.8-1.4c1.2-0.7,2.4-1.5,3.7-2.6c1.2-1,2.5-2.3,3.8-3.9v3.9c-2.6,2.6-5.2,4.5-7.9,5.7c-2.7,1.2-5.9,1.8-9.7,1.8
			c-4.8,0-9.1-1-12.9-2.9c-3.8-2-6.6-4.7-8.6-8.3c-2-3.7-3-7.6-3-11.6c0-4.3,1.1-8.4,3.3-12.2c2.3-3.9,5.3-6.9,9.2-9
			s7.9-3.2,12.2-3.2c3.1,0,6.5,0.7,10,2c2,0.9,3.4,1.3,3.9,1.3c0.7,0,1.4-0.3,1.9-0.8c0.5-0.5,0.8-1.4,0.9-2.5H42.8z"/>
		<path class="st0" d="M65.1,362.5v18.4h0.9c2.9,0,5-0.9,6.2-2.7c1.2-1.8,2-4.5,2.4-8.1h1.4v23.7h-1.4c-0.3-2.7-0.8-4.8-1.6-6.4
			c-0.9-1.6-1.8-2.7-3-3.2c-1.1-0.6-2.8-0.9-4.9-0.9v12.7c0,2.5,0.1,4,0.3,4.6c0.2,0.5,0.6,0.9,1.2,1.3c0.6,0.3,1.5,0.5,2.7,0.5h2.7
			c8.3,0,13.5-3.9,15.6-11.8H89L87,405H47.9v-1.2h1.5c1.3,0,2.3-0.2,3.1-0.7c0.7-0.4,1.1-1,1.4-1.7c0.2-0.4,0.3-1.8,0.3-4.1v-29.8
			c0-1.1,0-1.9,0-2.5c0-0.6,0-1-0.1-1.2c-0.3-0.8-0.7-1.4-1.3-1.8c-0.9-0.6-2-0.9-3.4-0.9h-1.5v-1.3h37.8v13.4h-1.2
			c-0.3-1.6-0.7-3-1.2-4.2c-0.4-1.1-1-2.1-1.6-2.9c-0.6-0.8-1.4-1.4-2.2-1.9c-0.8-0.5-1.8-0.9-2.9-1.2c-1.2-0.4-3.5-0.6-6.9-0.6
			H65.1z"/>
		<path class="st0" d="M135.1,389.4l-1.7,15.9H93.4V404h1.5c1.3,0,2.4-0.2,3.2-0.7c0.6-0.3,1-0.9,1.3-1.7c0.3-0.5,0.4-1.9,0.4-4.1
			v-29.8c0-2.3-0.1-3.7-0.4-4.3c-0.2-0.6-0.7-1.1-1.5-1.5c-0.8-0.4-1.7-0.6-2.9-0.6h-1.5V360h24.1v1.3h-2c-1.4,0-2.4,0.2-3.2,0.7
			c-0.6,0.3-1,0.8-1.4,1.6c-0.2,0.4-0.3,1.8-0.3,4.2v28.7c0,2.4,0.1,3.9,0.3,4.4c0.3,0.7,0.8,1.1,1.6,1.4c0.7,0.2,2,0.3,4,0.3h3.8
			c1.9-0.1,3.5-0.3,4.8-0.7c1.3-0.4,2.5-1.1,3.5-2.1c1-1,1.9-2.3,2.7-4c0.8-1.7,1.6-3.8,2.5-6.5H135.1z"/>
		<path class="st0" d="M156.2,362.5v18.4h0.9c2.9,0,5-0.9,6.2-2.7c1.2-1.8,2-4.5,2.4-8.1h1.4v23.7h-1.4c-0.3-2.7-0.8-4.8-1.6-6.4
			c-0.9-1.6-1.8-2.7-3-3.2c-1.1-0.6-2.8-0.9-4.9-0.9v12.7c0,2.5,0.1,4,0.3,4.6c0.2,0.5,0.6,0.9,1.2,1.3c0.6,0.3,1.5,0.5,2.7,0.5h2.7
			c8.3,0,13.5-3.9,15.6-11.8h1.3l-2,14.3H139v-1.2h1.5c1.3,0,2.3-0.2,3.1-0.7c0.7-0.4,1.1-1,1.4-1.7c0.2-0.4,0.3-1.8,0.3-4.1v-29.8
			c0-1.1,0-1.9,0-2.5c0-0.6,0-1-0.1-1.2c-0.3-0.8-0.7-1.4-1.3-1.8c-0.9-0.6-2-0.9-3.4-0.9H139v-1.3h37.8v13.4h-1.2
			c-0.3-1.6-0.7-3-1.2-4.2c-0.4-1.1-1-2.1-1.6-2.9c-0.6-0.8-1.4-1.4-2.2-1.9c-0.8-0.5-1.8-0.9-2.9-1.2c-1.2-0.4-3.5-0.6-6.9-0.6
			H156.2z"/>
		<path class="st0" d="M213.5,381.1c4.3,1.1,7.3,2.3,9,3.7c2.5,2,3.8,4.7,3.8,7.8c0,3.4-1.4,6.2-4.1,8.4c-3.5,2.7-8.4,4-14.7,4
			h-22.9v-1.2c2,0,3.5-0.2,4.3-0.6c0.8-0.4,1.3-0.9,1.5-1.4c0.3-0.7,0.4-2.2,0.4-4.7v-29.3c0-2.3-0.1-3.8-0.4-4.5
			c-0.3-0.7-0.8-1.2-1.6-1.6c-0.8-0.4-2.2-0.6-4.2-0.6v-1.3h21.6c5.2,0,8.9,0.5,11.1,1.4c2.2,0.9,3.9,2.3,5.1,4.1
			c1.3,1.8,1.9,3.8,1.9,5.8c0,2.2-0.8,4.2-2.4,5.9C220.3,378.8,217.5,380.1,213.5,381.1z M201.4,380.2c2.3-0.1,4.1-0.3,5.6-0.7
			c1.5-0.4,2.6-1,3.5-1.7c0.9-0.7,1.5-1.7,1.8-2.8c0.4-1.1,0.6-2.4,0.7-3.9c-0.1-1.5-0.4-2.8-0.7-3.9c-0.4-1.1-1-2-1.8-2.7
			c-0.9-0.7-2-1.3-3.5-1.6c-1.4-0.4-3.3-0.6-5.6-0.6V380.2z M201.4,397.3v1.7c0,2.4,1.2,3.6,3.6,3.6c1.4,0,2.6-0.2,3.8-0.7
			c1.2-0.5,2.2-1.1,3-2c0.9-0.8,1.5-1.8,2-3c0.5-1.2,0.7-2.5,0.7-3.9c0-2-0.5-3.9-1.5-5.6c-1-1.7-2.3-2.9-4-3.6
			c-1.7-0.7-4.3-1-7.7-0.9V397.3z"/>
		<path class="st0" d="M246.8,384.2v12.7c0,2.4,0.1,4,0.4,4.7c0.3,0.6,0.8,1.1,1.6,1.5s2.2,0.6,4.2,0.6v1.2H230v-1.2
			c2,0,3.4-0.2,4.2-0.6c0.9-0.5,1.4-0.9,1.6-1.5c0.3-0.7,0.4-2.2,0.4-4.7v-29.3c0-2.3-0.1-3.8-0.4-4.5c-0.3-0.7-0.8-1.2-1.6-1.6
			c-0.8-0.4-2.2-0.6-4.2-0.6v-1.3h21c5.4,0,9.4,0.4,11.9,1.2c2.6,0.7,4.6,2.1,6.2,4.1c1.6,2,2.4,4.4,2.4,7.2c0,3.3-1.2,6.1-3.6,8.3
			c-1.5,1.4-3.6,2.4-6.4,3.1l10.8,15.3c1.4,2,2.4,3.2,3.1,3.7c1,0.7,2,1.1,3.2,1.2v1.2h-14.2l-14.6-20.6H246.8z M246.8,362.2v19.8
			h1.8c3.1,0,5.5-0.3,7-0.8c1.5-0.6,2.7-1.7,3.6-3.1c0.9-1.4,1.3-3.4,1.3-5.8c0-3.4-0.8-5.9-2.4-7.6c-1.6-1.6-4.2-2.5-7.8-2.5H246.8
			z"/>
		<path class="st0" d="M306.4,393.2h-15.9l-2,4.3c-0.6,1.4-0.9,2.6-0.9,3.6c0,1.3,0.5,2.2,1.4,2.8c0.6,0.3,2,0.6,4.4,0.9v1.2h-15
			v-1.2c1.6-0.2,2.9-0.9,3.9-2c1.1-1.1,2.4-3.4,3.9-6.8l16.2-36.1h0.6l16.3,37.1c1.6,3.5,2.9,5.7,3.8,6.6c0.7,0.7,1.8,1.1,3.2,1.3
			v1.2h-21.8v-1.2h0.9c1.7,0,2.9-0.3,3.7-0.8c0.5-0.3,0.8-0.9,0.8-1.5c0-0.2,0-0.4,0-0.6c0-0.2-0.1-0.4-0.1-0.6
			c-0.1-0.1-0.2-0.4-0.3-0.8c-0.2-0.4-0.4-1-0.7-1.7L306.4,393.2z M305.2,390.6l-6.7-15.5l-7,15.5H305.2z"/>
		<path class="st0" d="M370.3,359.8V372H369c-0.7-2.8-1.5-4.9-2.3-6.1c-0.9-1.1-2-2.1-3.6-2.9c-0.9-0.4-2.3-0.6-4.4-0.6h-3.3v34.9
			c0,2.3,0.1,3.8,0.3,4.3c0.2,0.5,0.7,1,1.5,1.5s1.8,0.7,3,0.7h1.5v1.2h-23.6v-1.2h1.5c1.3,0,2.3-0.2,3.1-0.7c0.7-0.4,1.1-1,1.4-1.7
			c0.2-0.4,0.3-1.8,0.3-4.1v-34.9h-3.2c-3.1,0-5.3,0.6-6.7,1.9c-1.9,1.9-3.1,4.5-3.6,7.8h-1.3v-12.3H370.3z"/>
		<path class="st0" d="M397.8,403.9v1.2h-23.6v-1.2h1.5c1.3,0,2.3-0.2,3.1-0.7c0.7-0.4,1.1-1,1.4-1.7c0.2-0.4,0.3-1.8,0.3-4.1v-29.8
			c0-2.4-0.1-3.8-0.3-4.3c-0.2-0.6-0.7-1.1-1.5-1.5c-0.7-0.4-1.7-0.6-3-0.6h-1.5v-1.3h23.6v1.3h-1.5c-1.4,0-2.4,0.2-3.2,0.7
			c-0.6,0.3-1,0.8-1.4,1.6c-0.2,0.4-0.3,1.8-0.3,4.2v29.8c0,2.3,0.1,3.8,0.3,4.3c0.3,0.5,0.8,1,1.5,1.4s1.7,0.7,3,0.7H397.8z"/>
		<path class="st0" d="M425.6,358.5c7.1-0.3,12.9,1.8,17.5,6.3c4.5,4.4,6.8,10,6.8,16.8c0,5.7-1.7,10.7-5.1,15
			c-4.3,5.8-10.6,8.7-18.8,8.7c-8.1,0-14.4-2.8-18.8-8.3c-3.5-4.4-5.3-9.5-5.3-15.4c0-6.7,2.3-12.3,6.8-16.7
			C413.4,360.3,419,358.2,425.6,358.5z M426.1,360.6c-4.2,0-7.4,2.1-9.5,6.3c-1.8,3.4-2.6,8.4-2.6,14.9c0,7.7,1.4,13.4,4.1,17.1
			c1.9,2.6,4.5,3.8,7.9,3.8c2.3,0,4.2-0.6,5.7-1.7c1.9-1.4,3.5-3.7,4.6-6.7c1.1-3.1,1.7-7.2,1.7-12.3c0-5.9-0.6-10.4-1.7-13.4
			c-1.1-3-2.5-5.1-4.2-6.3C430.3,361.2,428.3,360.6,426.1,360.6z"/>
		<path class="st0" d="M469.3,360l22.3,28.1v-19.4c0-2.7-0.4-4.5-1.2-5.5c-1.1-1.2-2.9-1.8-5.4-1.8V360H500v1.3
			c-1.4,0.2-2.4,0.4-3.2,0.6c-0.7,0.2-1.3,0.5-1.7,1c-0.4,0.5-0.6,1.1-0.7,2c-0.1,0.9-0.2,2.1-0.3,3.7v37.6h-1.2l-30.5-37.6v28.7
			c0,1.3,0.2,2.4,0.5,3.2c0.3,0.9,0.7,1.5,1.3,2c0.5,0.5,1.2,0.8,1.9,1.1s1.4,0.3,2.2,0.3h1.1v1.2h-16V404c2.6-0.1,4.3-0.6,5.3-1.5
			s1.5-2.7,1.5-5.1v-31.9l-1-1.2c-0.9-1.2-1.7-2-2.5-2.3c-0.8-0.4-1.8-0.6-3.2-0.6V360H469.3z"/>
	</g>
</g>
</svg>
